<svg xmlns="http://www.w3.org/2000/svg" width="860" height="480">
<rect width="100%" height="100%" fill="white"/>
<line x1="70" y1="410" x2="790" y2="410" stroke="black"/>
<line x1="70" y1="70" x2="70" y2="410" stroke="black"/>
<text x="430.0" y="24" text-anchor="middle">NXW436 ALT steady speed ramp</text>
<text x="430.0" y="468" text-anchor="middle">payload (24-bit BE)</text>
<text x="18" y="240.0" transform="rotate(-90 18 240.0)" text-anchor="middle">absolute median counts/s</text>
<polyline fill="none" stroke="#1261a0" stroke-width="2" points="790.0,70.0 570.2,410.0 428.5,402.4 318.6,409.1 247.7,410.0 167.6,410.0 117.3,410.0 92.2,410.0 79.6,410.0 73.3,410.0 70.0,410.0"/>
<text x="790.0" y="442" font-size="10" text-anchor="middle">00E5E3</text><text x="570.2" y="442" font-size="10" text-anchor="middle">00A000</text><text x="428.5" y="442" font-size="10" text-anchor="middle">0072F1</text><text x="318.6" y="442" font-size="10" text-anchor="middle">005000</text><text x="247.7" y="442" font-size="10" text-anchor="middle">003978</text><text x="167.6" y="442" font-size="10" text-anchor="middle">002000</text><text x="117.3" y="442" font-size="10" text-anchor="middle">001000</text><text x="92.2" y="442" font-size="10" text-anchor="middle">000800</text><text x="79.6" y="442" font-size="10" text-anchor="middle">000400</text><text x="73.3" y="442" font-size="10" text-anchor="middle">000200</text><text x="70.0" y="442" font-size="10" text-anchor="middle">0000F5</text>
</svg>